# xmcd
#
# Track frame offsets:
#	151
#	14445
#	26308
#	40890
#	58282
#	75348
#	90564
#	111879
#	127707
#	152596
#	173793
#	193040
#	217242
#	243353
#	258741
#	281405
#
# Disc length: 4004 seconds
# Revision: 0
# Processed by: cddbd v1.4PL0 Copyright (c) Steve Scherf et al.
# Submitted via: cdrLabel 7.0
#
DISCID=d30fa210
DTITLE=Jerry Jeff Walker - Austin, TX 2/24/95
DYEAR=1995
DGENRE=
TTITLE0=Pickup Truck Song
TTITLE1=Gettin' By
TTITLE2=Navajo Rug
TTITLE3=????
TTITLE4=Lovin' Makes Livin' Worthile
TTITLE5=I Feel Like Hank Williams Tonight
TTITLE6=Sangria Wine
TTITLE7=Up Against A Wall Redneck Mother
TTITLE8=Pick Up The Tempo
TTITLE9=Trashy Women
TTITLE10=L.A. Freeway
TTITLE11=London Homesick Blues
TTITLE12=Some Phone Numbers
TTITLE13=Man With The Big Hat
TTITLE14=Mr. Bojangles
TTITLE15=Don't It Make You Want To Dance
EXTD=
EXTT0=
EXTT1=
EXTT2=
EXTT3=
EXTT4=
EXTT5=
EXTT6=
EXTT7=
EXTT8=
EXTT9=
EXTT10=
EXTT11=
EXTT12=
EXTT13=
EXTT14=
EXTT15=
PLAYORDER=
